%TF.GenerationSoftware,KiCad,Pcbnew,9.0.1*%
%TF.CreationDate,2026-01-11T14:59:02+01:00*%
%TF.ProjectId,RGB_driver,5247425f-6472-4697-9665-722e6b696361,rev?*%
%TF.SameCoordinates,Original*%
%TF.FileFunction,Soldermask,Bot*%
%TF.FilePolarity,Negative*%
%FSLAX46Y46*%
G04 Gerber Fmt 4.6, Leading zero omitted, Abs format (unit mm)*
G04 Created by KiCad (PCBNEW 9.0.1) date 2026-01-11 14:59:02*
%MOMM*%
%LPD*%
G01*
G04 APERTURE LIST*
G04 Aperture macros list*
%AMRoundRect*
0 Rectangle with rounded corners*
0 $1 Rounding radius*
0 $2 $3 $4 $5 $6 $7 $8 $9 X,Y pos of 4 corners*
0 Add a 4 corners polygon primitive as box body*
4,1,4,$2,$3,$4,$5,$6,$7,$8,$9,$2,$3,0*
0 Add four circle primitives for the rounded corners*
1,1,$1+$1,$2,$3*
1,1,$1+$1,$4,$5*
1,1,$1+$1,$6,$7*
1,1,$1+$1,$8,$9*
0 Add four rect primitives between the rounded corners*
20,1,$1+$1,$2,$3,$4,$5,0*
20,1,$1+$1,$4,$5,$6,$7,0*
20,1,$1+$1,$6,$7,$8,$9,0*
20,1,$1+$1,$8,$9,$2,$3,0*%
G04 Aperture macros list end*
%ADD10C,0.650000*%
%ADD11O,2.100000X1.000000*%
%ADD12O,1.800000X1.000000*%
%ADD13C,1.700000*%
%ADD14R,1.200000X1.200000*%
%ADD15C,1.200000*%
%ADD16C,2.000000*%
%ADD17R,1.700000X1.700000*%
%ADD18RoundRect,0.250000X-0.550000X-0.550000X0.550000X-0.550000X0.550000X0.550000X-0.550000X0.550000X0*%
%ADD19C,1.600000*%
G04 APERTURE END LIST*
D10*
%TO.C,J2*%
X103480000Y-50630000D03*
X103480000Y-56410000D03*
D11*
X103980000Y-49200000D03*
D12*
X99800000Y-49200000D03*
D11*
X103980000Y-57840000D03*
D12*
X99800000Y-57840000D03*
%TD*%
D13*
%TO.C,U4*%
X155120000Y-61902500D03*
%TD*%
%TO.C,R13*%
X151970000Y-56037500D03*
X142870000Y-56037500D03*
%TD*%
%TO.C,R3*%
X121170000Y-70492500D03*
X130270000Y-70492500D03*
%TD*%
D14*
%TO.C,C2*%
X113340000Y-64990000D03*
D15*
X114840000Y-64990000D03*
%TD*%
D16*
%TO.C,SW4*%
X106040000Y-77070000D03*
X101340000Y-77070000D03*
X106040000Y-63570000D03*
X101340000Y-63570000D03*
%TD*%
D17*
%TO.C,U6*%
X135800000Y-75000000D03*
D13*
X138340000Y-75000000D03*
X140880000Y-75000000D03*
X143420000Y-75000000D03*
X145960000Y-75000000D03*
X148500000Y-75000000D03*
%TD*%
D18*
%TO.C,U3*%
X132695000Y-59190000D03*
D19*
X132695000Y-61730000D03*
X132695000Y-64270000D03*
X132695000Y-66810000D03*
X140315000Y-66810000D03*
X140315000Y-64270000D03*
X140315000Y-61730000D03*
X140315000Y-59190000D03*
%TD*%
D13*
%TO.C,U5*%
X155080000Y-55832500D03*
%TD*%
D14*
%TO.C,C1*%
X113390000Y-72740000D03*
D15*
X114890000Y-72740000D03*
%TD*%
D16*
%TO.C,SW2*%
X112510000Y-57400000D03*
X112510000Y-52700000D03*
X126010000Y-57400000D03*
X126010000Y-52700000D03*
%TD*%
D13*
%TO.C,R8*%
X123170000Y-77172500D03*
X132270000Y-77172500D03*
%TD*%
%TO.C,RV1*%
X129500000Y-52000000D03*
X134500000Y-52000000D03*
X139500000Y-52025000D03*
%TD*%
%TO.C,R12*%
X151790000Y-61700000D03*
X142690000Y-61700000D03*
%TD*%
%TO.C,R4*%
X119190000Y-64762500D03*
X128290000Y-64762500D03*
%TD*%
%TO.C,U2*%
X155200000Y-67000000D03*
%TD*%
%TO.C,R11*%
X152020000Y-66937500D03*
X142920000Y-66937500D03*
%TD*%
M02*
