%TF.GenerationSoftware,KiCad,Pcbnew,9.0.1*%
%TF.CreationDate,2026-01-11T14:59:02+01:00*%
%TF.ProjectId,RGB_driver,5247425f-6472-4697-9665-722e6b696361,rev?*%
%TF.SameCoordinates,Original*%
%TF.FileFunction,Copper,L2,Bot*%
%TF.FilePolarity,Positive*%
%FSLAX46Y46*%
G04 Gerber Fmt 4.6, Leading zero omitted, Abs format (unit mm)*
G04 Created by KiCad (PCBNEW 9.0.1) date 2026-01-11 14:59:02*
%MOMM*%
%LPD*%
G01*
G04 APERTURE LIST*
G04 Aperture macros list*
%AMRoundRect*
0 Rectangle with rounded corners*
0 $1 Rounding radius*
0 $2 $3 $4 $5 $6 $7 $8 $9 X,Y pos of 4 corners*
0 Add a 4 corners polygon primitive as box body*
4,1,4,$2,$3,$4,$5,$6,$7,$8,$9,$2,$3,0*
0 Add four circle primitives for the rounded corners*
1,1,$1+$1,$2,$3*
1,1,$1+$1,$4,$5*
1,1,$1+$1,$6,$7*
1,1,$1+$1,$8,$9*
0 Add four rect primitives between the rounded corners*
20,1,$1+$1,$2,$3,$4,$5,0*
20,1,$1+$1,$4,$5,$6,$7,0*
20,1,$1+$1,$6,$7,$8,$9,0*
20,1,$1+$1,$8,$9,$2,$3,0*%
G04 Aperture macros list end*
%TA.AperFunction,HeatsinkPad*%
%ADD10O,2.100000X1.000000*%
%TD*%
%TA.AperFunction,HeatsinkPad*%
%ADD11O,1.800000X1.000000*%
%TD*%
%TA.AperFunction,ComponentPad*%
%ADD12C,1.700000*%
%TD*%
%TA.AperFunction,ComponentPad*%
%ADD13R,1.200000X1.200000*%
%TD*%
%TA.AperFunction,ComponentPad*%
%ADD14C,1.200000*%
%TD*%
%TA.AperFunction,ComponentPad*%
%ADD15C,2.000000*%
%TD*%
%TA.AperFunction,ComponentPad*%
%ADD16R,1.700000X1.700000*%
%TD*%
%TA.AperFunction,ComponentPad*%
%ADD17RoundRect,0.250000X-0.550000X-0.550000X0.550000X-0.550000X0.550000X0.550000X-0.550000X0.550000X0*%
%TD*%
%TA.AperFunction,ComponentPad*%
%ADD18C,1.600000*%
%TD*%
%TA.AperFunction,ViaPad*%
%ADD19C,0.600000*%
%TD*%
%TA.AperFunction,Conductor*%
%ADD20C,0.200000*%
%TD*%
G04 APERTURE END LIST*
D10*
%TO.P,J2,S1,SHIELD*%
%TO.N,unconnected-(J2-SHIELD-PadS1)*%
X103980000Y-49200000D03*
D11*
X99800000Y-49200000D03*
D10*
X103980000Y-57840000D03*
D11*
X99800000Y-57840000D03*
%TD*%
D12*
%TO.P,U4,1*%
%TO.N,Net-(R12-Pad1)*%
X155120000Y-61902500D03*
%TD*%
%TO.P,R13,1*%
%TO.N,Net-(R13-Pad1)*%
X151970000Y-56037500D03*
%TO.P,R13,2*%
%TO.N,Net-(U3-XTAL1{slash}PB3)*%
X142870000Y-56037500D03*
%TD*%
%TO.P,R3,1*%
%TO.N,Net-(J2-CC1)*%
X121170000Y-70492500D03*
%TO.P,R3,2*%
%TO.N,GND*%
X130270000Y-70492500D03*
%TD*%
D13*
%TO.P,C2,1*%
%TO.N,RST*%
X113340000Y-64990000D03*
D14*
%TO.P,C2,2*%
%TO.N,GND*%
X114840000Y-64990000D03*
%TD*%
D15*
%TO.P,SW4,1,1*%
%TO.N,unconnected-(SW4-Pad1)*%
X106040000Y-77070000D03*
%TO.P,SW4,2,2*%
%TO.N,RST*%
X101340000Y-77070000D03*
%TO.P,SW4,3,3*%
%TO.N,GND*%
X106040000Y-63570000D03*
%TO.P,SW4,4,4*%
%TO.N,unconnected-(SW4-Pad4)*%
X101340000Y-63570000D03*
%TD*%
D16*
%TO.P,U6,1*%
%TO.N,GND*%
X135800000Y-75000000D03*
D12*
%TO.P,U6,2*%
%TO.N,RST*%
X138340000Y-75000000D03*
%TO.P,U6,3*%
%TO.N,+5V*%
X140880000Y-75000000D03*
%TO.P,U6,4*%
%TO.N,Net-(U3-PB2)*%
X143420000Y-75000000D03*
%TO.P,U6,5*%
%TO.N,Net-(U3-AREF{slash}PB0)*%
X145960000Y-75000000D03*
%TO.P,U6,6*%
%TO.N,Net-(U3-PB1)*%
X148500000Y-75000000D03*
%TD*%
D17*
%TO.P,U3,1,~{RESET}/PB5*%
%TO.N,RST*%
X132695000Y-59190000D03*
D18*
%TO.P,U3,2,XTAL1/PB3*%
%TO.N,Net-(U3-XTAL1{slash}PB3)*%
X132695000Y-61730000D03*
%TO.P,U3,3,XTAL2/PB4*%
%TO.N,Net-(U3-XTAL2{slash}PB4)*%
X132695000Y-64270000D03*
%TO.P,U3,4,GND*%
%TO.N,GND*%
X132695000Y-66810000D03*
%TO.P,U3,5,AREF/PB0*%
%TO.N,Net-(U3-AREF{slash}PB0)*%
X140315000Y-66810000D03*
%TO.P,U3,6,PB1*%
%TO.N,Net-(U3-PB1)*%
X140315000Y-64270000D03*
%TO.P,U3,7,PB2*%
%TO.N,Net-(U3-PB2)*%
X140315000Y-61730000D03*
%TO.P,U3,8,VCC*%
%TO.N,+5V*%
X140315000Y-59190000D03*
%TD*%
D12*
%TO.P,U5,1*%
%TO.N,Net-(R13-Pad1)*%
X155080000Y-55832500D03*
%TD*%
D13*
%TO.P,C1,1*%
%TO.N,+5V*%
X113390000Y-72740000D03*
D14*
%TO.P,C1,2*%
%TO.N,GND*%
X114890000Y-72740000D03*
%TD*%
D15*
%TO.P,SW2,1,1*%
%TO.N,Net-(U3-XTAL2{slash}PB4)*%
X112510000Y-57400000D03*
%TO.P,SW2,2,2*%
%TO.N,unconnected-(SW2-Pad2)*%
X112510000Y-52700000D03*
%TO.P,SW2,3,3*%
%TO.N,unconnected-(SW2-Pad3)*%
X126010000Y-57400000D03*
%TO.P,SW2,4,4*%
%TO.N,GND*%
X126010000Y-52700000D03*
%TD*%
D12*
%TO.P,R8,1*%
%TO.N,RST*%
X123170000Y-77172500D03*
%TO.P,R8,2*%
%TO.N,+5V*%
X132270000Y-77172500D03*
%TD*%
%TO.P,RV1,1,1*%
%TO.N,GND*%
X129500000Y-52000000D03*
%TO.P,RV1,2,2*%
%TO.N,RST*%
X134500000Y-52000000D03*
%TO.P,RV1,3,3*%
%TO.N,+5V*%
X139500000Y-52025000D03*
%TD*%
%TO.P,R12,1*%
%TO.N,Net-(R12-Pad1)*%
X151790000Y-61700000D03*
%TO.P,R12,2*%
%TO.N,Net-(U3-PB1)*%
X142690000Y-61700000D03*
%TD*%
%TO.P,R4,1*%
%TO.N,Net-(J2-CC2)*%
X119190000Y-64762500D03*
%TO.P,R4,2*%
%TO.N,GND*%
X128290000Y-64762500D03*
%TD*%
%TO.P,U2,1*%
%TO.N,Net-(R11-Pad1)*%
X155200000Y-67000000D03*
%TD*%
%TO.P,R11,1*%
%TO.N,Net-(R11-Pad1)*%
X152020000Y-66937500D03*
%TO.P,R11,2*%
%TO.N,Net-(U3-AREF{slash}PB0)*%
X142920000Y-66937500D03*
%TD*%
D19*
%TO.N,GND*%
X107966177Y-54223823D03*
X106360000Y-57290000D03*
%TO.N,+5V*%
X106330000Y-51360000D03*
X105890000Y-55880000D03*
X136430000Y-51449000D03*
%TO.N,Net-(U3-XTAL1{slash}PB3)*%
X140100000Y-56040000D03*
X131150000Y-56040000D03*
%TD*%
D20*
%TO.N,GND*%
X107966177Y-54223823D02*
X107966177Y-55673823D01*
X106480000Y-57160000D02*
X106480000Y-57170000D01*
X107966177Y-55673823D02*
X106480000Y-57160000D01*
X106480000Y-57170000D02*
X106360000Y-57290000D01*
%TO.N,+5V*%
X126259892Y-51360000D02*
X106330000Y-51360000D01*
X136430000Y-51449000D02*
X135830000Y-50849000D01*
X105890000Y-51800000D02*
X105890000Y-55880000D01*
X135830000Y-50849000D02*
X126770892Y-50849000D01*
X126770892Y-50849000D02*
X126259892Y-51360000D01*
X106330000Y-51360000D02*
X105890000Y-51800000D01*
%TO.N,Net-(U3-XTAL1{slash}PB3)*%
X140100000Y-56040000D02*
X131150000Y-56040000D01*
%TD*%
M02*
