%TF.GenerationSoftware,KiCad,Pcbnew,9.0.1*%
%TF.CreationDate,2026-01-11T14:59:02+01:00*%
%TF.ProjectId,RGB_driver,5247425f-6472-4697-9665-722e6b696361,rev?*%
%TF.SameCoordinates,Original*%
%TF.FileFunction,Legend,Top*%
%TF.FilePolarity,Positive*%
%FSLAX46Y46*%
G04 Gerber Fmt 4.6, Leading zero omitted, Abs format (unit mm)*
G04 Created by KiCad (PCBNEW 9.0.1) date 2026-01-11 14:59:02*
%MOMM*%
%LPD*%
G01*
G04 APERTURE LIST*
%ADD10C,0.150000*%
%ADD11C,0.100000*%
%ADD12C,0.120000*%
G04 APERTURE END LIST*
D10*
X153676190Y-49840419D02*
X153723809Y-49792800D01*
X153723809Y-49792800D02*
X153866666Y-49745180D01*
X153866666Y-49745180D02*
X153961904Y-49745180D01*
X153961904Y-49745180D02*
X154104761Y-49792800D01*
X154104761Y-49792800D02*
X154199999Y-49888038D01*
X154199999Y-49888038D02*
X154247618Y-49983276D01*
X154247618Y-49983276D02*
X154295237Y-50173752D01*
X154295237Y-50173752D02*
X154295237Y-50316609D01*
X154295237Y-50316609D02*
X154247618Y-50507085D01*
X154247618Y-50507085D02*
X154199999Y-50602323D01*
X154199999Y-50602323D02*
X154104761Y-50697561D01*
X154104761Y-50697561D02*
X153961904Y-50745180D01*
X153961904Y-50745180D02*
X153866666Y-50745180D01*
X153866666Y-50745180D02*
X153723809Y-50697561D01*
X153723809Y-50697561D02*
X153676190Y-50649942D01*
X153342856Y-50411847D02*
X152819047Y-50411847D01*
X152819047Y-50411847D02*
X153342856Y-49745180D01*
X153342856Y-49745180D02*
X152819047Y-49745180D01*
X152057142Y-49792800D02*
X152152380Y-49745180D01*
X152152380Y-49745180D02*
X152342856Y-49745180D01*
X152342856Y-49745180D02*
X152438094Y-49792800D01*
X152438094Y-49792800D02*
X152485713Y-49888038D01*
X152485713Y-49888038D02*
X152485713Y-50268990D01*
X152485713Y-50268990D02*
X152438094Y-50364228D01*
X152438094Y-50364228D02*
X152342856Y-50411847D01*
X152342856Y-50411847D02*
X152152380Y-50411847D01*
X152152380Y-50411847D02*
X152057142Y-50364228D01*
X152057142Y-50364228D02*
X152009523Y-50268990D01*
X152009523Y-50268990D02*
X152009523Y-50173752D01*
X152009523Y-50173752D02*
X152485713Y-50078514D01*
X151628570Y-49792800D02*
X151533332Y-49745180D01*
X151533332Y-49745180D02*
X151342856Y-49745180D01*
X151342856Y-49745180D02*
X151247618Y-49792800D01*
X151247618Y-49792800D02*
X151199999Y-49888038D01*
X151199999Y-49888038D02*
X151199999Y-49935657D01*
X151199999Y-49935657D02*
X151247618Y-50030895D01*
X151247618Y-50030895D02*
X151342856Y-50078514D01*
X151342856Y-50078514D02*
X151485713Y-50078514D01*
X151485713Y-50078514D02*
X151580951Y-50126133D01*
X151580951Y-50126133D02*
X151628570Y-50221371D01*
X151628570Y-50221371D02*
X151628570Y-50268990D01*
X151628570Y-50268990D02*
X151580951Y-50364228D01*
X151580951Y-50364228D02*
X151485713Y-50411847D01*
X151485713Y-50411847D02*
X151342856Y-50411847D01*
X151342856Y-50411847D02*
X151247618Y-50364228D01*
X150771427Y-49745180D02*
X150771427Y-50745180D01*
X150676189Y-50126133D02*
X150390475Y-49745180D01*
X150390475Y-50411847D02*
X150771427Y-50030895D01*
X149961903Y-49745180D02*
X149961903Y-50411847D01*
X149961903Y-50745180D02*
X150009522Y-50697561D01*
X150009522Y-50697561D02*
X149961903Y-50649942D01*
X149961903Y-50649942D02*
X149914284Y-50697561D01*
X149914284Y-50697561D02*
X149961903Y-50745180D01*
X149961903Y-50745180D02*
X149961903Y-50649942D01*
X149104761Y-49792800D02*
X149199999Y-49745180D01*
X149199999Y-49745180D02*
X149390475Y-49745180D01*
X149390475Y-49745180D02*
X149485713Y-49792800D01*
X149485713Y-49792800D02*
X149533332Y-49888038D01*
X149533332Y-49888038D02*
X149533332Y-50268990D01*
X149533332Y-50268990D02*
X149485713Y-50364228D01*
X149485713Y-50364228D02*
X149390475Y-50411847D01*
X149390475Y-50411847D02*
X149199999Y-50411847D01*
X149199999Y-50411847D02*
X149104761Y-50364228D01*
X149104761Y-50364228D02*
X149057142Y-50268990D01*
X149057142Y-50268990D02*
X149057142Y-50173752D01*
X149057142Y-50173752D02*
X149533332Y-50078514D01*
X147295237Y-49745180D02*
X147628570Y-50221371D01*
X147866665Y-49745180D02*
X147866665Y-50745180D01*
X147866665Y-50745180D02*
X147485713Y-50745180D01*
X147485713Y-50745180D02*
X147390475Y-50697561D01*
X147390475Y-50697561D02*
X147342856Y-50649942D01*
X147342856Y-50649942D02*
X147295237Y-50554704D01*
X147295237Y-50554704D02*
X147295237Y-50411847D01*
X147295237Y-50411847D02*
X147342856Y-50316609D01*
X147342856Y-50316609D02*
X147390475Y-50268990D01*
X147390475Y-50268990D02*
X147485713Y-50221371D01*
X147485713Y-50221371D02*
X147866665Y-50221371D01*
X146438094Y-49745180D02*
X146438094Y-50268990D01*
X146438094Y-50268990D02*
X146485713Y-50364228D01*
X146485713Y-50364228D02*
X146580951Y-50411847D01*
X146580951Y-50411847D02*
X146771427Y-50411847D01*
X146771427Y-50411847D02*
X146866665Y-50364228D01*
X146438094Y-49792800D02*
X146533332Y-49745180D01*
X146533332Y-49745180D02*
X146771427Y-49745180D01*
X146771427Y-49745180D02*
X146866665Y-49792800D01*
X146866665Y-49792800D02*
X146914284Y-49888038D01*
X146914284Y-49888038D02*
X146914284Y-49983276D01*
X146914284Y-49983276D02*
X146866665Y-50078514D01*
X146866665Y-50078514D02*
X146771427Y-50126133D01*
X146771427Y-50126133D02*
X146533332Y-50126133D01*
X146533332Y-50126133D02*
X146438094Y-50173752D01*
X145533332Y-49745180D02*
X145533332Y-50745180D01*
X145533332Y-49792800D02*
X145628570Y-49745180D01*
X145628570Y-49745180D02*
X145819046Y-49745180D01*
X145819046Y-49745180D02*
X145914284Y-49792800D01*
X145914284Y-49792800D02*
X145961903Y-49840419D01*
X145961903Y-49840419D02*
X146009522Y-49935657D01*
X146009522Y-49935657D02*
X146009522Y-50221371D01*
X146009522Y-50221371D02*
X145961903Y-50316609D01*
X145961903Y-50316609D02*
X145914284Y-50364228D01*
X145914284Y-50364228D02*
X145819046Y-50411847D01*
X145819046Y-50411847D02*
X145628570Y-50411847D01*
X145628570Y-50411847D02*
X145533332Y-50364228D01*
X145057141Y-49745180D02*
X145057141Y-50411847D01*
X145057141Y-50745180D02*
X145104760Y-50697561D01*
X145104760Y-50697561D02*
X145057141Y-50649942D01*
X145057141Y-50649942D02*
X145009522Y-50697561D01*
X145009522Y-50697561D02*
X145057141Y-50745180D01*
X145057141Y-50745180D02*
X145057141Y-50649942D01*
X144438094Y-49745180D02*
X144533332Y-49792800D01*
X144533332Y-49792800D02*
X144580951Y-49840419D01*
X144580951Y-49840419D02*
X144628570Y-49935657D01*
X144628570Y-49935657D02*
X144628570Y-50221371D01*
X144628570Y-50221371D02*
X144580951Y-50316609D01*
X144580951Y-50316609D02*
X144533332Y-50364228D01*
X144533332Y-50364228D02*
X144438094Y-50411847D01*
X144438094Y-50411847D02*
X144295237Y-50411847D01*
X144295237Y-50411847D02*
X144199999Y-50364228D01*
X144199999Y-50364228D02*
X144152380Y-50316609D01*
X144152380Y-50316609D02*
X144104761Y-50221371D01*
X144104761Y-50221371D02*
X144104761Y-49935657D01*
X144104761Y-49935657D02*
X144152380Y-49840419D01*
X144152380Y-49840419D02*
X144199999Y-49792800D01*
X144199999Y-49792800D02*
X144295237Y-49745180D01*
X144295237Y-49745180D02*
X144438094Y-49745180D01*
X106945180Y-49866666D02*
X106230895Y-49866666D01*
X106230895Y-49866666D02*
X106088038Y-49819047D01*
X106088038Y-49819047D02*
X105992800Y-49723809D01*
X105992800Y-49723809D02*
X105945180Y-49580952D01*
X105945180Y-49580952D02*
X105945180Y-49485714D01*
X106849942Y-50295238D02*
X106897561Y-50342857D01*
X106897561Y-50342857D02*
X106945180Y-50438095D01*
X106945180Y-50438095D02*
X106945180Y-50676190D01*
X106945180Y-50676190D02*
X106897561Y-50771428D01*
X106897561Y-50771428D02*
X106849942Y-50819047D01*
X106849942Y-50819047D02*
X106754704Y-50866666D01*
X106754704Y-50866666D02*
X106659466Y-50866666D01*
X106659466Y-50866666D02*
X106516609Y-50819047D01*
X106516609Y-50819047D02*
X105945180Y-50247619D01*
X105945180Y-50247619D02*
X105945180Y-50866666D01*
D11*
X154358095Y-58197419D02*
X154358095Y-59006942D01*
X154358095Y-59006942D02*
X154405714Y-59102180D01*
X154405714Y-59102180D02*
X154453333Y-59149800D01*
X154453333Y-59149800D02*
X154548571Y-59197419D01*
X154548571Y-59197419D02*
X154739047Y-59197419D01*
X154739047Y-59197419D02*
X154834285Y-59149800D01*
X154834285Y-59149800D02*
X154881904Y-59102180D01*
X154881904Y-59102180D02*
X154929523Y-59006942D01*
X154929523Y-59006942D02*
X154929523Y-58197419D01*
X155834285Y-58530752D02*
X155834285Y-59197419D01*
X155596190Y-58149800D02*
X155358095Y-58864085D01*
X155358095Y-58864085D02*
X155977142Y-58864085D01*
X144792857Y-58860080D02*
X145126190Y-59336271D01*
X145364285Y-58860080D02*
X145364285Y-59860080D01*
X145364285Y-59860080D02*
X144983333Y-59860080D01*
X144983333Y-59860080D02*
X144888095Y-59812461D01*
X144888095Y-59812461D02*
X144840476Y-59764842D01*
X144840476Y-59764842D02*
X144792857Y-59669604D01*
X144792857Y-59669604D02*
X144792857Y-59526747D01*
X144792857Y-59526747D02*
X144840476Y-59431509D01*
X144840476Y-59431509D02*
X144888095Y-59383890D01*
X144888095Y-59383890D02*
X144983333Y-59336271D01*
X144983333Y-59336271D02*
X145364285Y-59336271D01*
X143840476Y-58860080D02*
X144411904Y-58860080D01*
X144126190Y-58860080D02*
X144126190Y-59860080D01*
X144126190Y-59860080D02*
X144221428Y-59717223D01*
X144221428Y-59717223D02*
X144316666Y-59621985D01*
X144316666Y-59621985D02*
X144411904Y-59574366D01*
X143507142Y-59860080D02*
X142888095Y-59860080D01*
X142888095Y-59860080D02*
X143221428Y-59479128D01*
X143221428Y-59479128D02*
X143078571Y-59479128D01*
X143078571Y-59479128D02*
X142983333Y-59431509D01*
X142983333Y-59431509D02*
X142935714Y-59383890D01*
X142935714Y-59383890D02*
X142888095Y-59288652D01*
X142888095Y-59288652D02*
X142888095Y-59050557D01*
X142888095Y-59050557D02*
X142935714Y-58955319D01*
X142935714Y-58955319D02*
X142983333Y-58907700D01*
X142983333Y-58907700D02*
X143078571Y-58860080D01*
X143078571Y-58860080D02*
X143364285Y-58860080D01*
X143364285Y-58860080D02*
X143459523Y-58907700D01*
X143459523Y-58907700D02*
X143507142Y-58955319D01*
X118503333Y-71317419D02*
X118170000Y-70841228D01*
X117931905Y-71317419D02*
X117931905Y-70317419D01*
X117931905Y-70317419D02*
X118312857Y-70317419D01*
X118312857Y-70317419D02*
X118408095Y-70365038D01*
X118408095Y-70365038D02*
X118455714Y-70412657D01*
X118455714Y-70412657D02*
X118503333Y-70507895D01*
X118503333Y-70507895D02*
X118503333Y-70650752D01*
X118503333Y-70650752D02*
X118455714Y-70745990D01*
X118455714Y-70745990D02*
X118408095Y-70793609D01*
X118408095Y-70793609D02*
X118312857Y-70841228D01*
X118312857Y-70841228D02*
X117931905Y-70841228D01*
X118836667Y-70317419D02*
X119455714Y-70317419D01*
X119455714Y-70317419D02*
X119122381Y-70698371D01*
X119122381Y-70698371D02*
X119265238Y-70698371D01*
X119265238Y-70698371D02*
X119360476Y-70745990D01*
X119360476Y-70745990D02*
X119408095Y-70793609D01*
X119408095Y-70793609D02*
X119455714Y-70888847D01*
X119455714Y-70888847D02*
X119455714Y-71126942D01*
X119455714Y-71126942D02*
X119408095Y-71222180D01*
X119408095Y-71222180D02*
X119360476Y-71269800D01*
X119360476Y-71269800D02*
X119265238Y-71317419D01*
X119265238Y-71317419D02*
X118979524Y-71317419D01*
X118979524Y-71317419D02*
X118884286Y-71269800D01*
X118884286Y-71269800D02*
X118836667Y-71222180D01*
D10*
X115753333Y-68789580D02*
X115705714Y-68837200D01*
X115705714Y-68837200D02*
X115562857Y-68884819D01*
X115562857Y-68884819D02*
X115467619Y-68884819D01*
X115467619Y-68884819D02*
X115324762Y-68837200D01*
X115324762Y-68837200D02*
X115229524Y-68741961D01*
X115229524Y-68741961D02*
X115181905Y-68646723D01*
X115181905Y-68646723D02*
X115134286Y-68456247D01*
X115134286Y-68456247D02*
X115134286Y-68313390D01*
X115134286Y-68313390D02*
X115181905Y-68122914D01*
X115181905Y-68122914D02*
X115229524Y-68027676D01*
X115229524Y-68027676D02*
X115324762Y-67932438D01*
X115324762Y-67932438D02*
X115467619Y-67884819D01*
X115467619Y-67884819D02*
X115562857Y-67884819D01*
X115562857Y-67884819D02*
X115705714Y-67932438D01*
X115705714Y-67932438D02*
X115753333Y-67980057D01*
X116134286Y-67980057D02*
X116181905Y-67932438D01*
X116181905Y-67932438D02*
X116277143Y-67884819D01*
X116277143Y-67884819D02*
X116515238Y-67884819D01*
X116515238Y-67884819D02*
X116610476Y-67932438D01*
X116610476Y-67932438D02*
X116658095Y-67980057D01*
X116658095Y-67980057D02*
X116705714Y-68075295D01*
X116705714Y-68075295D02*
X116705714Y-68170533D01*
X116705714Y-68170533D02*
X116658095Y-68313390D01*
X116658095Y-68313390D02*
X116086667Y-68884819D01*
X116086667Y-68884819D02*
X116705714Y-68884819D01*
X102206667Y-79877200D02*
X102349524Y-79924819D01*
X102349524Y-79924819D02*
X102587619Y-79924819D01*
X102587619Y-79924819D02*
X102682857Y-79877200D01*
X102682857Y-79877200D02*
X102730476Y-79829580D01*
X102730476Y-79829580D02*
X102778095Y-79734342D01*
X102778095Y-79734342D02*
X102778095Y-79639104D01*
X102778095Y-79639104D02*
X102730476Y-79543866D01*
X102730476Y-79543866D02*
X102682857Y-79496247D01*
X102682857Y-79496247D02*
X102587619Y-79448628D01*
X102587619Y-79448628D02*
X102397143Y-79401009D01*
X102397143Y-79401009D02*
X102301905Y-79353390D01*
X102301905Y-79353390D02*
X102254286Y-79305771D01*
X102254286Y-79305771D02*
X102206667Y-79210533D01*
X102206667Y-79210533D02*
X102206667Y-79115295D01*
X102206667Y-79115295D02*
X102254286Y-79020057D01*
X102254286Y-79020057D02*
X102301905Y-78972438D01*
X102301905Y-78972438D02*
X102397143Y-78924819D01*
X102397143Y-78924819D02*
X102635238Y-78924819D01*
X102635238Y-78924819D02*
X102778095Y-78972438D01*
X103111429Y-78924819D02*
X103349524Y-79924819D01*
X103349524Y-79924819D02*
X103540000Y-79210533D01*
X103540000Y-79210533D02*
X103730476Y-79924819D01*
X103730476Y-79924819D02*
X103968572Y-78924819D01*
X104778095Y-79258152D02*
X104778095Y-79924819D01*
X104540000Y-78877200D02*
X104301905Y-79591485D01*
X104301905Y-79591485D02*
X104920952Y-79591485D01*
D11*
X150767419Y-75771904D02*
X151576942Y-75771904D01*
X151576942Y-75771904D02*
X151672180Y-75724285D01*
X151672180Y-75724285D02*
X151719800Y-75676666D01*
X151719800Y-75676666D02*
X151767419Y-75581428D01*
X151767419Y-75581428D02*
X151767419Y-75390952D01*
X151767419Y-75390952D02*
X151719800Y-75295714D01*
X151719800Y-75295714D02*
X151672180Y-75248095D01*
X151672180Y-75248095D02*
X151576942Y-75200476D01*
X151576942Y-75200476D02*
X150767419Y-75200476D01*
X150767419Y-74295714D02*
X150767419Y-74486190D01*
X150767419Y-74486190D02*
X150815038Y-74581428D01*
X150815038Y-74581428D02*
X150862657Y-74629047D01*
X150862657Y-74629047D02*
X151005514Y-74724285D01*
X151005514Y-74724285D02*
X151195990Y-74771904D01*
X151195990Y-74771904D02*
X151576942Y-74771904D01*
X151576942Y-74771904D02*
X151672180Y-74724285D01*
X151672180Y-74724285D02*
X151719800Y-74676666D01*
X151719800Y-74676666D02*
X151767419Y-74581428D01*
X151767419Y-74581428D02*
X151767419Y-74390952D01*
X151767419Y-74390952D02*
X151719800Y-74295714D01*
X151719800Y-74295714D02*
X151672180Y-74248095D01*
X151672180Y-74248095D02*
X151576942Y-74200476D01*
X151576942Y-74200476D02*
X151338847Y-74200476D01*
X151338847Y-74200476D02*
X151243609Y-74248095D01*
X151243609Y-74248095D02*
X151195990Y-74295714D01*
X151195990Y-74295714D02*
X151148371Y-74390952D01*
X151148371Y-74390952D02*
X151148371Y-74581428D01*
X151148371Y-74581428D02*
X151195990Y-74676666D01*
X151195990Y-74676666D02*
X151243609Y-74724285D01*
X151243609Y-74724285D02*
X151338847Y-74771904D01*
D10*
X135743095Y-56314819D02*
X135743095Y-57124342D01*
X135743095Y-57124342D02*
X135790714Y-57219580D01*
X135790714Y-57219580D02*
X135838333Y-57267200D01*
X135838333Y-57267200D02*
X135933571Y-57314819D01*
X135933571Y-57314819D02*
X136124047Y-57314819D01*
X136124047Y-57314819D02*
X136219285Y-57267200D01*
X136219285Y-57267200D02*
X136266904Y-57219580D01*
X136266904Y-57219580D02*
X136314523Y-57124342D01*
X136314523Y-57124342D02*
X136314523Y-56314819D01*
X136695476Y-56314819D02*
X137314523Y-56314819D01*
X137314523Y-56314819D02*
X136981190Y-56695771D01*
X136981190Y-56695771D02*
X137124047Y-56695771D01*
X137124047Y-56695771D02*
X137219285Y-56743390D01*
X137219285Y-56743390D02*
X137266904Y-56791009D01*
X137266904Y-56791009D02*
X137314523Y-56886247D01*
X137314523Y-56886247D02*
X137314523Y-57124342D01*
X137314523Y-57124342D02*
X137266904Y-57219580D01*
X137266904Y-57219580D02*
X137219285Y-57267200D01*
X137219285Y-57267200D02*
X137124047Y-57314819D01*
X137124047Y-57314819D02*
X136838333Y-57314819D01*
X136838333Y-57314819D02*
X136743095Y-57267200D01*
X136743095Y-57267200D02*
X136695476Y-57219580D01*
D11*
X155728095Y-51127419D02*
X155728095Y-51936942D01*
X155728095Y-51936942D02*
X155775714Y-52032180D01*
X155775714Y-52032180D02*
X155823333Y-52079800D01*
X155823333Y-52079800D02*
X155918571Y-52127419D01*
X155918571Y-52127419D02*
X156109047Y-52127419D01*
X156109047Y-52127419D02*
X156204285Y-52079800D01*
X156204285Y-52079800D02*
X156251904Y-52032180D01*
X156251904Y-52032180D02*
X156299523Y-51936942D01*
X156299523Y-51936942D02*
X156299523Y-51127419D01*
X157251904Y-51127419D02*
X156775714Y-51127419D01*
X156775714Y-51127419D02*
X156728095Y-51603609D01*
X156728095Y-51603609D02*
X156775714Y-51555990D01*
X156775714Y-51555990D02*
X156870952Y-51508371D01*
X156870952Y-51508371D02*
X157109047Y-51508371D01*
X157109047Y-51508371D02*
X157204285Y-51555990D01*
X157204285Y-51555990D02*
X157251904Y-51603609D01*
X157251904Y-51603609D02*
X157299523Y-51698847D01*
X157299523Y-51698847D02*
X157299523Y-51936942D01*
X157299523Y-51936942D02*
X157251904Y-52032180D01*
X157251904Y-52032180D02*
X157204285Y-52079800D01*
X157204285Y-52079800D02*
X157109047Y-52127419D01*
X157109047Y-52127419D02*
X156870952Y-52127419D01*
X156870952Y-52127419D02*
X156775714Y-52079800D01*
X156775714Y-52079800D02*
X156728095Y-52032180D01*
D10*
X113973333Y-69849580D02*
X113925714Y-69897200D01*
X113925714Y-69897200D02*
X113782857Y-69944819D01*
X113782857Y-69944819D02*
X113687619Y-69944819D01*
X113687619Y-69944819D02*
X113544762Y-69897200D01*
X113544762Y-69897200D02*
X113449524Y-69801961D01*
X113449524Y-69801961D02*
X113401905Y-69706723D01*
X113401905Y-69706723D02*
X113354286Y-69516247D01*
X113354286Y-69516247D02*
X113354286Y-69373390D01*
X113354286Y-69373390D02*
X113401905Y-69182914D01*
X113401905Y-69182914D02*
X113449524Y-69087676D01*
X113449524Y-69087676D02*
X113544762Y-68992438D01*
X113544762Y-68992438D02*
X113687619Y-68944819D01*
X113687619Y-68944819D02*
X113782857Y-68944819D01*
X113782857Y-68944819D02*
X113925714Y-68992438D01*
X113925714Y-68992438D02*
X113973333Y-69040057D01*
X114925714Y-69944819D02*
X114354286Y-69944819D01*
X114640000Y-69944819D02*
X114640000Y-68944819D01*
X114640000Y-68944819D02*
X114544762Y-69087676D01*
X114544762Y-69087676D02*
X114449524Y-69182914D01*
X114449524Y-69182914D02*
X114354286Y-69230533D01*
X110517200Y-56233332D02*
X110564819Y-56090475D01*
X110564819Y-56090475D02*
X110564819Y-55852380D01*
X110564819Y-55852380D02*
X110517200Y-55757142D01*
X110517200Y-55757142D02*
X110469580Y-55709523D01*
X110469580Y-55709523D02*
X110374342Y-55661904D01*
X110374342Y-55661904D02*
X110279104Y-55661904D01*
X110279104Y-55661904D02*
X110183866Y-55709523D01*
X110183866Y-55709523D02*
X110136247Y-55757142D01*
X110136247Y-55757142D02*
X110088628Y-55852380D01*
X110088628Y-55852380D02*
X110041009Y-56042856D01*
X110041009Y-56042856D02*
X109993390Y-56138094D01*
X109993390Y-56138094D02*
X109945771Y-56185713D01*
X109945771Y-56185713D02*
X109850533Y-56233332D01*
X109850533Y-56233332D02*
X109755295Y-56233332D01*
X109755295Y-56233332D02*
X109660057Y-56185713D01*
X109660057Y-56185713D02*
X109612438Y-56138094D01*
X109612438Y-56138094D02*
X109564819Y-56042856D01*
X109564819Y-56042856D02*
X109564819Y-55804761D01*
X109564819Y-55804761D02*
X109612438Y-55661904D01*
X109564819Y-55328570D02*
X110564819Y-55090475D01*
X110564819Y-55090475D02*
X109850533Y-54899999D01*
X109850533Y-54899999D02*
X110564819Y-54709523D01*
X110564819Y-54709523D02*
X109564819Y-54471428D01*
X109660057Y-54138094D02*
X109612438Y-54090475D01*
X109612438Y-54090475D02*
X109564819Y-53995237D01*
X109564819Y-53995237D02*
X109564819Y-53757142D01*
X109564819Y-53757142D02*
X109612438Y-53661904D01*
X109612438Y-53661904D02*
X109660057Y-53614285D01*
X109660057Y-53614285D02*
X109755295Y-53566666D01*
X109755295Y-53566666D02*
X109850533Y-53566666D01*
X109850533Y-53566666D02*
X109993390Y-53614285D01*
X109993390Y-53614285D02*
X110564819Y-54185713D01*
X110564819Y-54185713D02*
X110564819Y-53566666D01*
D11*
X123063333Y-80367419D02*
X122730000Y-79891228D01*
X122491905Y-80367419D02*
X122491905Y-79367419D01*
X122491905Y-79367419D02*
X122872857Y-79367419D01*
X122872857Y-79367419D02*
X122968095Y-79415038D01*
X122968095Y-79415038D02*
X123015714Y-79462657D01*
X123015714Y-79462657D02*
X123063333Y-79557895D01*
X123063333Y-79557895D02*
X123063333Y-79700752D01*
X123063333Y-79700752D02*
X123015714Y-79795990D01*
X123015714Y-79795990D02*
X122968095Y-79843609D01*
X122968095Y-79843609D02*
X122872857Y-79891228D01*
X122872857Y-79891228D02*
X122491905Y-79891228D01*
X123634762Y-79795990D02*
X123539524Y-79748371D01*
X123539524Y-79748371D02*
X123491905Y-79700752D01*
X123491905Y-79700752D02*
X123444286Y-79605514D01*
X123444286Y-79605514D02*
X123444286Y-79557895D01*
X123444286Y-79557895D02*
X123491905Y-79462657D01*
X123491905Y-79462657D02*
X123539524Y-79415038D01*
X123539524Y-79415038D02*
X123634762Y-79367419D01*
X123634762Y-79367419D02*
X123825238Y-79367419D01*
X123825238Y-79367419D02*
X123920476Y-79415038D01*
X123920476Y-79415038D02*
X123968095Y-79462657D01*
X123968095Y-79462657D02*
X124015714Y-79557895D01*
X124015714Y-79557895D02*
X124015714Y-79605514D01*
X124015714Y-79605514D02*
X123968095Y-79700752D01*
X123968095Y-79700752D02*
X123920476Y-79748371D01*
X123920476Y-79748371D02*
X123825238Y-79795990D01*
X123825238Y-79795990D02*
X123634762Y-79795990D01*
X123634762Y-79795990D02*
X123539524Y-79843609D01*
X123539524Y-79843609D02*
X123491905Y-79891228D01*
X123491905Y-79891228D02*
X123444286Y-79986466D01*
X123444286Y-79986466D02*
X123444286Y-80176942D01*
X123444286Y-80176942D02*
X123491905Y-80272180D01*
X123491905Y-80272180D02*
X123539524Y-80319800D01*
X123539524Y-80319800D02*
X123634762Y-80367419D01*
X123634762Y-80367419D02*
X123825238Y-80367419D01*
X123825238Y-80367419D02*
X123920476Y-80319800D01*
X123920476Y-80319800D02*
X123968095Y-80272180D01*
X123968095Y-80272180D02*
X124015714Y-80176942D01*
X124015714Y-80176942D02*
X124015714Y-79986466D01*
X124015714Y-79986466D02*
X123968095Y-79891228D01*
X123968095Y-79891228D02*
X123920476Y-79843609D01*
X123920476Y-79843609D02*
X123825238Y-79795990D01*
X131255238Y-55232580D02*
X131588571Y-55708771D01*
X131826666Y-55232580D02*
X131826666Y-56232580D01*
X131826666Y-56232580D02*
X131445714Y-56232580D01*
X131445714Y-56232580D02*
X131350476Y-56184961D01*
X131350476Y-56184961D02*
X131302857Y-56137342D01*
X131302857Y-56137342D02*
X131255238Y-56042104D01*
X131255238Y-56042104D02*
X131255238Y-55899247D01*
X131255238Y-55899247D02*
X131302857Y-55804009D01*
X131302857Y-55804009D02*
X131350476Y-55756390D01*
X131350476Y-55756390D02*
X131445714Y-55708771D01*
X131445714Y-55708771D02*
X131826666Y-55708771D01*
X130969523Y-56232580D02*
X130636190Y-55232580D01*
X130636190Y-55232580D02*
X130302857Y-56232580D01*
X129445714Y-55232580D02*
X130017142Y-55232580D01*
X129731428Y-55232580D02*
X129731428Y-56232580D01*
X129731428Y-56232580D02*
X129826666Y-56089723D01*
X129826666Y-56089723D02*
X129921904Y-55994485D01*
X129921904Y-55994485D02*
X130017142Y-55946866D01*
X152712857Y-63802580D02*
X153046190Y-64278771D01*
X153284285Y-63802580D02*
X153284285Y-64802580D01*
X153284285Y-64802580D02*
X152903333Y-64802580D01*
X152903333Y-64802580D02*
X152808095Y-64754961D01*
X152808095Y-64754961D02*
X152760476Y-64707342D01*
X152760476Y-64707342D02*
X152712857Y-64612104D01*
X152712857Y-64612104D02*
X152712857Y-64469247D01*
X152712857Y-64469247D02*
X152760476Y-64374009D01*
X152760476Y-64374009D02*
X152808095Y-64326390D01*
X152808095Y-64326390D02*
X152903333Y-64278771D01*
X152903333Y-64278771D02*
X153284285Y-64278771D01*
X151760476Y-63802580D02*
X152331904Y-63802580D01*
X152046190Y-63802580D02*
X152046190Y-64802580D01*
X152046190Y-64802580D02*
X152141428Y-64659723D01*
X152141428Y-64659723D02*
X152236666Y-64564485D01*
X152236666Y-64564485D02*
X152331904Y-64516866D01*
X151379523Y-64707342D02*
X151331904Y-64754961D01*
X151331904Y-64754961D02*
X151236666Y-64802580D01*
X151236666Y-64802580D02*
X150998571Y-64802580D01*
X150998571Y-64802580D02*
X150903333Y-64754961D01*
X150903333Y-64754961D02*
X150855714Y-64707342D01*
X150855714Y-64707342D02*
X150808095Y-64612104D01*
X150808095Y-64612104D02*
X150808095Y-64516866D01*
X150808095Y-64516866D02*
X150855714Y-64374009D01*
X150855714Y-64374009D02*
X151427142Y-63802580D01*
X151427142Y-63802580D02*
X150808095Y-63802580D01*
X119093333Y-67677419D02*
X118760000Y-67201228D01*
X118521905Y-67677419D02*
X118521905Y-66677419D01*
X118521905Y-66677419D02*
X118902857Y-66677419D01*
X118902857Y-66677419D02*
X118998095Y-66725038D01*
X118998095Y-66725038D02*
X119045714Y-66772657D01*
X119045714Y-66772657D02*
X119093333Y-66867895D01*
X119093333Y-66867895D02*
X119093333Y-67010752D01*
X119093333Y-67010752D02*
X119045714Y-67105990D01*
X119045714Y-67105990D02*
X118998095Y-67153609D01*
X118998095Y-67153609D02*
X118902857Y-67201228D01*
X118902857Y-67201228D02*
X118521905Y-67201228D01*
X119950476Y-67010752D02*
X119950476Y-67677419D01*
X119712381Y-66629800D02*
X119474286Y-67344085D01*
X119474286Y-67344085D02*
X120093333Y-67344085D01*
X154438095Y-69467419D02*
X154438095Y-70276942D01*
X154438095Y-70276942D02*
X154485714Y-70372180D01*
X154485714Y-70372180D02*
X154533333Y-70419800D01*
X154533333Y-70419800D02*
X154628571Y-70467419D01*
X154628571Y-70467419D02*
X154819047Y-70467419D01*
X154819047Y-70467419D02*
X154914285Y-70419800D01*
X154914285Y-70419800D02*
X154961904Y-70372180D01*
X154961904Y-70372180D02*
X155009523Y-70276942D01*
X155009523Y-70276942D02*
X155009523Y-69467419D01*
X155438095Y-69562657D02*
X155485714Y-69515038D01*
X155485714Y-69515038D02*
X155580952Y-69467419D01*
X155580952Y-69467419D02*
X155819047Y-69467419D01*
X155819047Y-69467419D02*
X155914285Y-69515038D01*
X155914285Y-69515038D02*
X155961904Y-69562657D01*
X155961904Y-69562657D02*
X156009523Y-69657895D01*
X156009523Y-69657895D02*
X156009523Y-69753133D01*
X156009523Y-69753133D02*
X155961904Y-69895990D01*
X155961904Y-69895990D02*
X155390476Y-70467419D01*
X155390476Y-70467419D02*
X156009523Y-70467419D01*
X147862857Y-71080080D02*
X148196190Y-71556271D01*
X148434285Y-71080080D02*
X148434285Y-72080080D01*
X148434285Y-72080080D02*
X148053333Y-72080080D01*
X148053333Y-72080080D02*
X147958095Y-72032461D01*
X147958095Y-72032461D02*
X147910476Y-71984842D01*
X147910476Y-71984842D02*
X147862857Y-71889604D01*
X147862857Y-71889604D02*
X147862857Y-71746747D01*
X147862857Y-71746747D02*
X147910476Y-71651509D01*
X147910476Y-71651509D02*
X147958095Y-71603890D01*
X147958095Y-71603890D02*
X148053333Y-71556271D01*
X148053333Y-71556271D02*
X148434285Y-71556271D01*
X146910476Y-71080080D02*
X147481904Y-71080080D01*
X147196190Y-71080080D02*
X147196190Y-72080080D01*
X147196190Y-72080080D02*
X147291428Y-71937223D01*
X147291428Y-71937223D02*
X147386666Y-71841985D01*
X147386666Y-71841985D02*
X147481904Y-71794366D01*
X145958095Y-71080080D02*
X146529523Y-71080080D01*
X146243809Y-71080080D02*
X146243809Y-72080080D01*
X146243809Y-72080080D02*
X146339047Y-71937223D01*
X146339047Y-71937223D02*
X146434285Y-71841985D01*
X146434285Y-71841985D02*
X146529523Y-71794366D01*
D12*
%TO.C,J2*%
X100975000Y-48850000D02*
X102675000Y-48850000D01*
X100975000Y-58190000D02*
X102675000Y-58190000D01*
D11*
%TO.C,U4*%
X153920000Y-60702500D02*
X156320000Y-60702500D01*
X153920000Y-63102500D02*
X153920000Y-60702500D01*
X156320000Y-60702500D02*
X156320000Y-63102500D01*
X156320000Y-63102500D02*
X153920000Y-63102500D01*
%TO.C,R13*%
X143970000Y-54437500D02*
X150870000Y-54437500D01*
X143970000Y-55987500D02*
X143870000Y-55987500D01*
X143970000Y-57537500D02*
X143970000Y-54437500D01*
X150870000Y-54437500D02*
X150870000Y-57537500D01*
X150870000Y-55987500D02*
X150970000Y-55987500D01*
X150870000Y-57537500D02*
X143970000Y-57537500D01*
%TO.C,R3*%
X122270000Y-68992500D02*
X129170000Y-68992500D01*
X122270000Y-70542500D02*
X122170000Y-70542500D01*
X122270000Y-72092500D02*
X122270000Y-68992500D01*
X129170000Y-68992500D02*
X129170000Y-72092500D01*
X129170000Y-70542500D02*
X129270000Y-70542500D01*
X129170000Y-72092500D02*
X122270000Y-72092500D01*
D12*
%TO.C,C2*%
X111820199Y-63795000D02*
X112220199Y-63795000D01*
X112020199Y-63595000D02*
X112020199Y-63995000D01*
X114090000Y-62910000D02*
X114090000Y-64150000D01*
X114090000Y-65830000D02*
X114090000Y-67070000D01*
X114130000Y-62910000D02*
X114130000Y-64150000D01*
X114130000Y-65830000D02*
X114130000Y-67070000D01*
X114170000Y-62912000D02*
X114170000Y-64150000D01*
X114170000Y-65830000D02*
X114170000Y-67068000D01*
X114210000Y-62913000D02*
X114210000Y-64150000D01*
X114210000Y-65830000D02*
X114210000Y-67067000D01*
X114250000Y-62916000D02*
X114250000Y-64150000D01*
X114250000Y-65830000D02*
X114250000Y-67064000D01*
X114290000Y-62919000D02*
X114290000Y-64150000D01*
X114290000Y-65830000D02*
X114290000Y-67061000D01*
X114330000Y-62924000D02*
X114330000Y-64150000D01*
X114330000Y-65830000D02*
X114330000Y-67056000D01*
X114370000Y-62929000D02*
X114370000Y-64150000D01*
X114370000Y-65830000D02*
X114370000Y-67051000D01*
X114410000Y-62934000D02*
X114410000Y-64150000D01*
X114410000Y-65830000D02*
X114410000Y-67046000D01*
X114450000Y-62941000D02*
X114450000Y-64150000D01*
X114450000Y-65830000D02*
X114450000Y-67039000D01*
X114490000Y-62948000D02*
X114490000Y-64150000D01*
X114490000Y-65830000D02*
X114490000Y-67032000D01*
X114530000Y-62956000D02*
X114530000Y-64150000D01*
X114530000Y-65830000D02*
X114530000Y-67024000D01*
X114570000Y-62965000D02*
X114570000Y-64150000D01*
X114570000Y-65830000D02*
X114570000Y-67015000D01*
X114610000Y-62975000D02*
X114610000Y-64150000D01*
X114610000Y-65830000D02*
X114610000Y-67005000D01*
X114650000Y-62985000D02*
X114650000Y-64150000D01*
X114650000Y-65830000D02*
X114650000Y-66995000D01*
X114690000Y-62997000D02*
X114690000Y-64150000D01*
X114690000Y-65830000D02*
X114690000Y-66983000D01*
X114730000Y-63009000D02*
X114730000Y-64150000D01*
X114730000Y-65830000D02*
X114730000Y-66971000D01*
X114770000Y-63022000D02*
X114770000Y-64150000D01*
X114770000Y-65830000D02*
X114770000Y-66958000D01*
X114810000Y-63036000D02*
X114810000Y-64150000D01*
X114810000Y-65830000D02*
X114810000Y-66944000D01*
X114850000Y-63051000D02*
X114850000Y-64150000D01*
X114850000Y-65830000D02*
X114850000Y-66929000D01*
X114890000Y-63067000D02*
X114890000Y-64150000D01*
X114890000Y-65830000D02*
X114890000Y-66913000D01*
X114930000Y-63084000D02*
X114930000Y-64150000D01*
X114930000Y-65830000D02*
X114930000Y-66896000D01*
X114970000Y-63101000D02*
X114970000Y-64150000D01*
X114970000Y-65830000D02*
X114970000Y-66879000D01*
X115010000Y-63120000D02*
X115010000Y-64150000D01*
X115010000Y-65830000D02*
X115010000Y-66860000D01*
X115050000Y-63140000D02*
X115050000Y-64150000D01*
X115050000Y-65830000D02*
X115050000Y-66840000D01*
X115090000Y-63161000D02*
X115090000Y-64150000D01*
X115090000Y-65830000D02*
X115090000Y-66819000D01*
X115130000Y-63183000D02*
X115130000Y-64150000D01*
X115130000Y-65830000D02*
X115130000Y-66797000D01*
X115170000Y-63206000D02*
X115170000Y-64150000D01*
X115170000Y-65830000D02*
X115170000Y-66774000D01*
X115210000Y-63230000D02*
X115210000Y-64150000D01*
X115210000Y-65830000D02*
X115210000Y-66750000D01*
X115250000Y-63256000D02*
X115250000Y-64150000D01*
X115250000Y-65830000D02*
X115250000Y-66724000D01*
X115290000Y-63282000D02*
X115290000Y-64150000D01*
X115290000Y-65830000D02*
X115290000Y-66698000D01*
X115330000Y-63310000D02*
X115330000Y-64150000D01*
X115330000Y-65830000D02*
X115330000Y-66670000D01*
X115370000Y-63340000D02*
X115370000Y-64150000D01*
X115370000Y-65830000D02*
X115370000Y-66640000D01*
X115410000Y-63371000D02*
X115410000Y-64150000D01*
X115410000Y-65830000D02*
X115410000Y-66609000D01*
X115450000Y-63404000D02*
X115450000Y-64150000D01*
X115450000Y-65830000D02*
X115450000Y-66576000D01*
X115490000Y-63438000D02*
X115490000Y-64150000D01*
X115490000Y-65830000D02*
X115490000Y-66542000D01*
X115530000Y-63474000D02*
X115530000Y-64150000D01*
X115530000Y-65830000D02*
X115530000Y-66506000D01*
X115570000Y-63512000D02*
X115570000Y-64150000D01*
X115570000Y-65830000D02*
X115570000Y-66468000D01*
X115610000Y-63552000D02*
X115610000Y-64150000D01*
X115610000Y-65830000D02*
X115610000Y-66428000D01*
X115650000Y-63594000D02*
X115650000Y-64150000D01*
X115650000Y-65830000D02*
X115650000Y-66386000D01*
X115690000Y-63639000D02*
X115690000Y-66341000D01*
X115730000Y-63687000D02*
X115730000Y-66293000D01*
X115770000Y-63737000D02*
X115770000Y-66243000D01*
X115810000Y-63791000D02*
X115810000Y-66189000D01*
X115850000Y-63848000D02*
X115850000Y-66132000D01*
X115890000Y-63910000D02*
X115890000Y-66070000D01*
X115930000Y-63977000D02*
X115930000Y-66003000D01*
X115970000Y-64050000D02*
X115970000Y-65930000D01*
X116010000Y-64131000D02*
X116010000Y-65849000D01*
X116050000Y-64222000D02*
X116050000Y-65758000D01*
X116090000Y-64327000D02*
X116090000Y-65653000D01*
X116130000Y-64453000D02*
X116130000Y-65527000D01*
X116170000Y-64620000D02*
X116170000Y-65360000D01*
X116210000Y-64990000D02*
G75*
G02*
X111970000Y-64990000I-2120000J0D01*
G01*
X111970000Y-64990000D02*
G75*
G02*
X116210000Y-64990000I2120000J0D01*
G01*
D11*
%TO.C,SW4*%
X104940000Y-63270000D02*
X102440000Y-63270000D01*
X104940000Y-77270000D02*
X102440000Y-77270000D01*
D12*
%TO.C,U6*%
X134420000Y-73620000D02*
X149930000Y-73620000D01*
X134420000Y-76380000D02*
X134420000Y-73620000D01*
X134580000Y-76380000D02*
X149930000Y-76380000D01*
X135800000Y-76380000D02*
X134420000Y-76380000D01*
X137070000Y-76380000D02*
X137070000Y-73620000D01*
X149930000Y-76380000D02*
X149930000Y-73620000D01*
%TO.C,U3*%
X133855000Y-57860000D02*
X133855000Y-68140000D01*
X133855000Y-68140000D02*
X139155000Y-68140000D01*
X135505000Y-57860000D02*
X133855000Y-57860000D01*
X139155000Y-57860000D02*
X137505000Y-57860000D01*
X139155000Y-68140000D02*
X139155000Y-57860000D01*
X137505000Y-57860000D02*
G75*
G02*
X135505000Y-57860000I-1000000J0D01*
G01*
D11*
%TO.C,U5*%
X153880000Y-54632500D02*
X156280000Y-54632500D01*
X153880000Y-57032500D02*
X153880000Y-54632500D01*
X156280000Y-54632500D02*
X156280000Y-57032500D01*
X156280000Y-57032500D02*
X153880000Y-57032500D01*
D12*
%TO.C,C1*%
X111870199Y-71545000D02*
X112270199Y-71545000D01*
X112070199Y-71345000D02*
X112070199Y-71745000D01*
X114140000Y-70660000D02*
X114140000Y-71900000D01*
X114140000Y-73580000D02*
X114140000Y-74820000D01*
X114180000Y-70660000D02*
X114180000Y-71900000D01*
X114180000Y-73580000D02*
X114180000Y-74820000D01*
X114220000Y-70662000D02*
X114220000Y-71900000D01*
X114220000Y-73580000D02*
X114220000Y-74818000D01*
X114260000Y-70663000D02*
X114260000Y-71900000D01*
X114260000Y-73580000D02*
X114260000Y-74817000D01*
X114300000Y-70666000D02*
X114300000Y-71900000D01*
X114300000Y-73580000D02*
X114300000Y-74814000D01*
X114340000Y-70669000D02*
X114340000Y-71900000D01*
X114340000Y-73580000D02*
X114340000Y-74811000D01*
X114380000Y-70674000D02*
X114380000Y-71900000D01*
X114380000Y-73580000D02*
X114380000Y-74806000D01*
X114420000Y-70679000D02*
X114420000Y-71900000D01*
X114420000Y-73580000D02*
X114420000Y-74801000D01*
X114460000Y-70684000D02*
X114460000Y-71900000D01*
X114460000Y-73580000D02*
X114460000Y-74796000D01*
X114500000Y-70691000D02*
X114500000Y-71900000D01*
X114500000Y-73580000D02*
X114500000Y-74789000D01*
X114540000Y-70698000D02*
X114540000Y-71900000D01*
X114540000Y-73580000D02*
X114540000Y-74782000D01*
X114580000Y-70706000D02*
X114580000Y-71900000D01*
X114580000Y-73580000D02*
X114580000Y-74774000D01*
X114620000Y-70715000D02*
X114620000Y-71900000D01*
X114620000Y-73580000D02*
X114620000Y-74765000D01*
X114660000Y-70725000D02*
X114660000Y-71900000D01*
X114660000Y-73580000D02*
X114660000Y-74755000D01*
X114700000Y-70735000D02*
X114700000Y-71900000D01*
X114700000Y-73580000D02*
X114700000Y-74745000D01*
X114740000Y-70747000D02*
X114740000Y-71900000D01*
X114740000Y-73580000D02*
X114740000Y-74733000D01*
X114780000Y-70759000D02*
X114780000Y-71900000D01*
X114780000Y-73580000D02*
X114780000Y-74721000D01*
X114820000Y-70772000D02*
X114820000Y-71900000D01*
X114820000Y-73580000D02*
X114820000Y-74708000D01*
X114860000Y-70786000D02*
X114860000Y-71900000D01*
X114860000Y-73580000D02*
X114860000Y-74694000D01*
X114900000Y-70801000D02*
X114900000Y-71900000D01*
X114900000Y-73580000D02*
X114900000Y-74679000D01*
X114940000Y-70817000D02*
X114940000Y-71900000D01*
X114940000Y-73580000D02*
X114940000Y-74663000D01*
X114980000Y-70834000D02*
X114980000Y-71900000D01*
X114980000Y-73580000D02*
X114980000Y-74646000D01*
X115020000Y-70851000D02*
X115020000Y-71900000D01*
X115020000Y-73580000D02*
X115020000Y-74629000D01*
X115060000Y-70870000D02*
X115060000Y-71900000D01*
X115060000Y-73580000D02*
X115060000Y-74610000D01*
X115100000Y-70890000D02*
X115100000Y-71900000D01*
X115100000Y-73580000D02*
X115100000Y-74590000D01*
X115140000Y-70911000D02*
X115140000Y-71900000D01*
X115140000Y-73580000D02*
X115140000Y-74569000D01*
X115180000Y-70933000D02*
X115180000Y-71900000D01*
X115180000Y-73580000D02*
X115180000Y-74547000D01*
X115220000Y-70956000D02*
X115220000Y-71900000D01*
X115220000Y-73580000D02*
X115220000Y-74524000D01*
X115260000Y-70980000D02*
X115260000Y-71900000D01*
X115260000Y-73580000D02*
X115260000Y-74500000D01*
X115300000Y-71006000D02*
X115300000Y-71900000D01*
X115300000Y-73580000D02*
X115300000Y-74474000D01*
X115340000Y-71032000D02*
X115340000Y-71900000D01*
X115340000Y-73580000D02*
X115340000Y-74448000D01*
X115380000Y-71060000D02*
X115380000Y-71900000D01*
X115380000Y-73580000D02*
X115380000Y-74420000D01*
X115420000Y-71090000D02*
X115420000Y-71900000D01*
X115420000Y-73580000D02*
X115420000Y-74390000D01*
X115460000Y-71121000D02*
X115460000Y-71900000D01*
X115460000Y-73580000D02*
X115460000Y-74359000D01*
X115500000Y-71154000D02*
X115500000Y-71900000D01*
X115500000Y-73580000D02*
X115500000Y-74326000D01*
X115540000Y-71188000D02*
X115540000Y-71900000D01*
X115540000Y-73580000D02*
X115540000Y-74292000D01*
X115580000Y-71224000D02*
X115580000Y-71900000D01*
X115580000Y-73580000D02*
X115580000Y-74256000D01*
X115620000Y-71262000D02*
X115620000Y-71900000D01*
X115620000Y-73580000D02*
X115620000Y-74218000D01*
X115660000Y-71302000D02*
X115660000Y-71900000D01*
X115660000Y-73580000D02*
X115660000Y-74178000D01*
X115700000Y-71344000D02*
X115700000Y-71900000D01*
X115700000Y-73580000D02*
X115700000Y-74136000D01*
X115740000Y-71389000D02*
X115740000Y-74091000D01*
X115780000Y-71437000D02*
X115780000Y-74043000D01*
X115820000Y-71487000D02*
X115820000Y-73993000D01*
X115860000Y-71541000D02*
X115860000Y-73939000D01*
X115900000Y-71598000D02*
X115900000Y-73882000D01*
X115940000Y-71660000D02*
X115940000Y-73820000D01*
X115980000Y-71727000D02*
X115980000Y-73753000D01*
X116020000Y-71800000D02*
X116020000Y-73680000D01*
X116060000Y-71881000D02*
X116060000Y-73599000D01*
X116100000Y-71972000D02*
X116100000Y-73508000D01*
X116140000Y-72077000D02*
X116140000Y-73403000D01*
X116180000Y-72203000D02*
X116180000Y-73277000D01*
X116220000Y-72370000D02*
X116220000Y-73110000D01*
X116260000Y-72740000D02*
G75*
G02*
X112020000Y-72740000I-2120000J0D01*
G01*
X112020000Y-72740000D02*
G75*
G02*
X116260000Y-72740000I2120000J0D01*
G01*
D11*
%TO.C,SW2*%
X112310000Y-56300000D02*
X112310000Y-53800000D01*
X126310000Y-56300000D02*
X126310000Y-53800000D01*
%TO.C,R8*%
X124270000Y-75672500D02*
X131170000Y-75672500D01*
X124270000Y-77222500D02*
X124170000Y-77222500D01*
X124270000Y-78772500D02*
X124270000Y-75672500D01*
X131170000Y-75672500D02*
X131170000Y-78772500D01*
X131170000Y-77222500D02*
X131270000Y-77222500D01*
X131170000Y-78772500D02*
X124270000Y-78772500D01*
%TO.C,RV1*%
X128300000Y-49550000D02*
X128300000Y-54550000D01*
X128300000Y-54550000D02*
X128400000Y-54550000D01*
X128400000Y-54550000D02*
X140600000Y-54550000D01*
X140600000Y-49550000D02*
X128300000Y-49550000D01*
X140600000Y-54550000D02*
X140600000Y-49550000D01*
%TO.C,R12*%
X143790000Y-60100000D02*
X150690000Y-60100000D01*
X143790000Y-61650000D02*
X143690000Y-61650000D01*
X143790000Y-63200000D02*
X143790000Y-60100000D01*
X150690000Y-60100000D02*
X150690000Y-63200000D01*
X150690000Y-61650000D02*
X150790000Y-61650000D01*
X150690000Y-63200000D02*
X143790000Y-63200000D01*
%TO.C,R4*%
X120290000Y-63262500D02*
X127190000Y-63262500D01*
X120290000Y-64812500D02*
X120190000Y-64812500D01*
X120290000Y-66362500D02*
X120290000Y-63262500D01*
X127190000Y-63262500D02*
X127190000Y-66362500D01*
X127190000Y-64812500D02*
X127290000Y-64812500D01*
X127190000Y-66362500D02*
X120290000Y-66362500D01*
%TO.C,U2*%
X154000000Y-65800000D02*
X156400000Y-65800000D01*
X154000000Y-68200000D02*
X154000000Y-65800000D01*
X156400000Y-65800000D02*
X156400000Y-68200000D01*
X156400000Y-68200000D02*
X154000000Y-68200000D01*
%TO.C,R11*%
X144020000Y-65337500D02*
X150920000Y-65337500D01*
X144020000Y-66887500D02*
X143920000Y-66887500D01*
X144020000Y-68437500D02*
X144020000Y-65337500D01*
X150920000Y-65337500D02*
X150920000Y-68437500D01*
X150920000Y-66887500D02*
X151020000Y-66887500D01*
X150920000Y-68437500D02*
X144020000Y-68437500D01*
%TD*%
M02*
